<?xml version="1.0" encoding="UTF-8" standalone="no"?>
<!-- Generator: Adobe Illustrator 16.0.0, SVG Export Plug-In . SVG Version: 6.00 Build 0)  -->

<svg
   xmlns:dc="http://purl.org/dc/elements/1.1/"
   xmlns:cc="http://creativecommons.org/ns#"
   xmlns:rdf="http://www.w3.org/1999/02/22-rdf-syntax-ns#"
   xmlns:svg="http://www.w3.org/2000/svg"
   xmlns="http://www.w3.org/2000/svg"
   xmlns:sodipodi="http://sodipodi.sourceforge.net/DTD/sodipodi-0.dtd"
   xmlns:inkscape="http://www.inkscape.org/namespaces/inkscape"
   version="1.1"
   id="Layer_1"
   x="0px"
   y="0px"
   width="220.875px"
   height="29.562px"
   viewBox="0 0 220.875 29.562"
   enable-background="new 0 0 220.875 29.562"
   xml:space="preserve"
   sodipodi:docname="logo.svg"
   inkscape:version="0.92.3 (2405546, 2018-03-11)"><metadata
   id="metadata35"><rdf:RDF><cc:Work
       rdf:about=""><dc:format>image/svg+xml</dc:format><dc:type
         rdf:resource="http://purl.org/dc/dcmitype/StillImage" /><dc:title></dc:title></cc:Work></rdf:RDF></metadata><defs
   id="defs33" /><sodipodi:namedview
   pagecolor="#ffffff"
   bordercolor="#666666"
   borderopacity="1"
   objecttolerance="10"
   gridtolerance="10"
   guidetolerance="10"
   inkscape:pageopacity="0"
   inkscape:pageshadow="2"
   inkscape:window-width="640"
   inkscape:window-height="480"
   id="namedview31"
   showgrid="false"
   inkscape:zoom="5.1431805"
   inkscape:cx="47.108513"
   inkscape:cy="22.100237"
   inkscape:window-x="0"
   inkscape:window-y="0"
   inkscape:window-maximized="0"
   inkscape:current-layer="g28" />
<path
   d="m 14.39153,16.367699 c 2.383727,0 3.489191,0.506943 3.721804,1.226846 0.05428,0.172603 -0.0022,0.423436 -0.08197,0.714316 -0.268059,0.9667 -0.575994,2.154121 1.720226,2.154121 1.941763,0 2.939782,-1.043999 3.515776,-2.234524 0.556055,-1.178108 -0.03323,-1.764834 0.255874,-2.28761 0.551624,-0.991225 3.639835,-1.880006 2.685015,-3.144105 -0.528361,-0.701277 -1.905207,-1.030961 -3.270976,-1.169726 -3.143595,-0.320681 -5.172864,0.297088 -8.549072,0.297088 -3.376207,0 -5.4054763,-0.617769 -8.550179,-0.297088 -1.3613383,0.138765 -2.7392918,0.468449 -3.2676551,1.169726 -0.9526045,1.263789 2.1333911,2.15288 2.687231,3.144105 0.2891044,0.523086 -0.2990735,1.109502 0.2569817,2.28761 0.5759934,1.190215 1.5729051,2.234524 3.5157753,2.234524 2.2940051,0 1.9882851,-1.187421 1.7202271,-2.154121 -0.07865,-0.29088 -0.137353,-0.542023 -0.08197,-0.714316 0.231505,-0.720213 1.351369,-1.226846 3.722911,-1.226846 z"
   id="path2"
   inkscape:connector-curvature="0"
   style="fill:#3cadb2;stroke-width:0.58639973" />
<g
   id="g28">
	<path
   fill="#3CADB2"
   d="M27.138,26.492V2.483h8.207c7.451,0,12.311,5.219,12.311,12.022c0,6.839-4.859,11.986-12.311,11.986H27.138   z M44.56,14.505c0-5.184-3.275-9.359-9.215-9.359h-5.219v18.682h5.219C41.176,23.828,44.56,19.652,44.56,14.505z"
   id="path4" />
	<path
   d="m 51.222,17.781 c 0,-5.04 3.6,-9.107 8.567,-9.107 5.255,0 8.351,4.104 8.351,9.323 v 0.684 l -7.658737,2.916483 c 0.216,3.275 -3.896263,3.094517 -0.153263,3.094517 1.979,0 3.995,-0.792 5.363,-2.196 l 1.296,1.764 c -1.728,1.728 -4.068,2.664 -6.911,2.664 -5.147,0 -8.854,-3.708 -8.854,-9.143 z m 8.53,-6.875 c -3.708,0 -5.543,3.131 -5.687,5.795 l 4.41044,-2.333187 C 58.44044,11.775813 63.712,10.906 59.752,10.906 Z"
   id="path6"
   inkscape:connector-curvature="0"
   style="fill:#3cadb2"
   sodipodi:nodetypes="sssccsccsssccs" />
	<path
   d="M 84.231,26.492 81.703381,15.894729 C 80.993437,12.918224 82.683,11.085 80.344,11.085 c -2.124,0 1.10967,5.379077 0.10267,6.783077 L 75.197,26.492 h -2.7 V 9.106 h 2.7 v 2.52 c 1.224,-1.44 3.6,-2.952 6.191,-2.952 3.636,0 5.543,1.836 5.543,5.615 v 12.203 h -2.7 z"
   id="path8"
   inkscape:connector-curvature="0"
   style="fill:#3cadb2"
   sodipodi:nodetypes="cssccccccssccc" />
	<path
   fill="#3CADB2"
   d="M92.873,22.856V11.481h-2.88V9.106h2.88V4.354h2.7v4.751H99.1v2.375h-3.527V22.28   c0,1.296,0.576,2.231,1.764,2.231c0.756,0,1.476-0.324,1.836-0.72l0.792,2.016c-0.685,0.648-1.656,1.116-3.24,1.116   C94.169,26.924,92.873,25.448,92.873,22.856z"
   id="path10" />
	<path
   fill="#3CADB2"
   d="M102.449,4.822c0-1.008,0.828-1.835,1.8-1.835c1.008,0,1.836,0.828,1.836,1.835s-0.828,1.8-1.836,1.8   C103.277,6.622,102.449,5.83,102.449,4.822z M102.917,26.492V9.106h2.7v17.386H102.917z"
   id="path12" />
	<path
   fill="#3CADB2"
   d="M109.505,24.188l1.404-1.944c1.15,1.332,3.348,2.484,5.723,2.484c2.664,0,4.104-1.26,4.104-2.988   c0-4.211-10.762-1.62-10.762-8.063c0-2.7,2.338-5.003,6.479-5.003c2.951,0,5.039,1.116,6.443,2.52l-1.26,1.872   c-1.045-1.26-2.953-2.196-5.184-2.196c-2.377,0-3.852,1.188-3.852,2.736c0,3.815,10.762,1.296,10.762,8.063   c0,2.916-2.34,5.255-6.838,5.255C113.681,26.924,111.269,26.06,109.505,24.188z"
   id="path14" />
	<path
   fill="#3CADB2"
   d="M128.296,22.856V11.481h-2.879V9.106h2.879V4.354h2.699v4.751h3.527v2.375h-3.527V22.28   c0,1.296,0.576,2.231,1.764,2.231c0.756,0,1.477-0.324,1.836-0.72l0.793,2.016c-0.686,0.648-1.656,1.116-3.24,1.116   C129.591,26.924,128.296,25.448,128.296,22.856z"
   id="path16" />
	<path
   fill="#3CADB2"
   d="M137.009,23.108l1.764-2.268c1.584,1.764,4.174,3.419,7.559,3.419c4.283,0,5.65-2.304,5.65-4.139   c0-6.191-14.217-2.772-14.217-11.339c0-3.959,3.527-6.659,8.242-6.659c3.672,0,6.516,1.224,8.531,3.348l-1.801,2.196   c-1.799-1.979-4.318-2.879-6.947-2.879c-2.879,0-4.93,1.547-4.93,3.815c0,5.399,14.217,2.304,14.217,11.267   c0,3.491-2.375,7.055-8.854,7.055C142.048,26.924,138.987,25.34,137.009,23.108z"
   id="path18" />
	<path
   fill="#3CADB2"
   d="M180.421,26.492V14.685c0-2.196-0.973-3.6-3.203-3.6c-1.801,0-3.709,1.296-4.607,2.664v12.742h-2.699   V14.685c0-2.196-0.938-3.6-3.205-3.6c-1.764,0-3.635,1.296-4.57,2.7v12.707h-2.701V9.106h2.701v2.52   c0.719-1.116,3.059-2.952,5.615-2.952c2.664,0,4.176,1.44,4.68,3.24c0.971-1.584,3.311-3.24,5.83-3.24   c3.168,0,4.859,1.764,4.859,5.255v12.562H180.421z"
   id="path20" />
	<path
   fill="#3CADB2"
   d="M188.056,4.822c0-1.008,0.828-1.835,1.799-1.835c1.008,0,1.836,0.828,1.836,1.835s-0.828,1.8-1.836,1.8   C188.884,6.622,188.056,5.83,188.056,4.822z M188.522,26.492V9.106h2.701v17.386H188.522z"
   id="path22" />
	<path
   fill="#3CADB2"
   d="M196.622,26.492V2.483h2.701v24.009H196.622z"
   id="path24" />
	<path
   fill="#3CADB2"
   d="M203.716,17.781c0-5.04,3.6-9.107,8.566-9.107c5.256,0,8.352,4.104,8.352,9.323v0.684H206.56   c0.215,3.275,2.52,6.011,6.264,6.011c1.979,0,3.994-0.792,5.363-2.196l1.295,1.764c-1.727,1.728-4.066,2.664-6.91,2.664   C207.423,26.924,203.716,23.216,203.716,17.781z M212.247,10.906c-3.707,0-5.543,3.131-5.688,5.795h11.41   C217.935,14.109,216.206,10.906,212.247,10.906z"
   id="path26" />
</g>
</svg>